<svg xmlns="http://www.w3.org/2000/svg" width="26" height="25" viewBox="0 0 26 25" fill="none">
  <mask id="mask0_38_234" style="mask-type:alpha" maskUnits="userSpaceOnUse" x="0" y="0" width="26" height="25">
    <rect width="25.0942" height="24.5714" fill="#D9D9D9"/>
  </mask>
  <g mask="url(#mask0_38_234)">
    <path d="M12.0243 20.4762C11.1529 20.4762 10.4123 20.1776 9.80237 19.5803C9.19244 18.9831 8.88748 18.2579 8.88748 17.4047H10.9787C10.9787 17.6948 11.079 17.9378 11.2798 18.1337C11.4798 18.3303 11.728 18.4286 12.0243 18.4286C12.3205 18.4286 12.569 18.3303 12.7698 18.1337C12.9698 17.9378 13.0698 17.6948 13.0698 17.4047C13.0698 17.1147 12.9698 16.8717 12.7698 16.6758C12.569 16.4792 12.3205 16.3809 12.0243 16.3809H2.09113V14.3333H12.0243C12.8956 14.3333 13.6362 14.6319 14.2461 15.2291C14.8561 15.8264 15.161 16.5516 15.161 17.4047C15.161 18.2579 14.8561 18.9831 14.2461 19.5803C13.6362 20.1776 12.8956 20.4762 12.0243 20.4762ZM2.09113 10.2381V8.19046H16.2066C16.6597 8.19046 17.0344 8.04542 17.3306 7.75534C17.6269 7.46526 17.775 7.0984 17.775 6.65474C17.775 6.21109 17.6269 5.84423 17.3306 5.55415C17.0344 5.26407 16.6597 5.11903 16.2066 5.11903C15.7535 5.11903 15.3789 5.26407 15.0826 5.55415C14.7864 5.84423 14.6382 6.21109 14.6382 6.65474H12.5471C12.5471 5.648 12.8998 4.79892 13.6052 4.10751C14.3113 3.41678 15.1785 3.07141 16.2066 3.07141C17.2348 3.07141 18.1019 3.41678 18.8081 4.10751C19.5135 4.79892 19.8662 5.648 19.8662 6.65474C19.8662 7.66149 19.5135 8.51023 18.8081 9.20096C18.1019 9.89237 17.2348 10.2381 16.2066 10.2381H2.09113ZM19.3434 18.4286V16.3809C19.7965 16.3809 20.1712 16.2359 20.4674 15.9458C20.7637 15.6557 20.9118 15.2889 20.9118 14.8452C20.9118 14.4016 20.7637 14.0347 20.4674 13.7446C20.1712 13.4545 19.7965 13.3095 19.3434 13.3095H2.09113V11.2619H19.3434C20.3716 11.2619 21.2387 11.6073 21.9448 12.298C22.6503 12.9894 23.003 13.8385 23.003 14.8452C23.003 15.852 22.6503 16.701 21.9448 17.3925C21.2387 18.0832 20.3716 18.4286 19.3434 18.4286Z" fill="#1FBDE0"/>
  </g>
</svg>