<svg xmlns="http://www.w3.org/2000/svg" width="25" height="25" viewBox="0 0 25 25" fill="none">
  <mask id="mask0_38_268" style="mask-type:alpha" maskUnits="userSpaceOnUse" x="0" y="0" width="25" height="25">
    <rect width="25" height="25" fill="#D9D9D9"/>
  </mask>
  <g mask="url(#mask0_38_268)">
    <path d="M13.6459 23.9583H10.9375L11.4584 23.6333C11.8056 23.416 12.1834 23.1729 12.5917 22.9042C12.9993 22.6347 13.3768 22.3917 13.724 22.175L14.2448 21.849C15.6511 21.7448 16.949 21.3194 18.1386 20.5729C19.3275 19.8264 20.2691 18.8281 20.9636 17.5781C19.4705 17.4392 18.0556 17.0618 16.7188 16.4458C15.382 15.8292 14.184 14.9913 13.125 13.9323C12.066 12.8733 11.224 11.6753 10.599 10.3385C9.97398 9.00174 9.60072 7.58681 9.47919 6.09375C8.14238 6.84028 7.09655 7.86875 6.34169 9.17917C5.58613 10.4903 5.20835 11.9097 5.20835 13.4375V13.75L4.89585 13.8927C4.68752 13.9885 4.45766 14.0885 4.20627 14.1927C3.95419 14.2969 3.72398 14.3965 3.51565 14.4917L3.20315 14.6354C3.16842 14.4444 3.1469 14.2448 3.13856 14.0365C3.12953 13.8281 3.12502 13.6285 3.12502 13.4375C3.12502 10.9028 3.93231 8.66736 5.5469 6.73125C7.16148 4.79583 9.21877 3.59375 11.7188 3.125C11.4063 4.84375 11.5018 6.52326 12.0052 8.16354C12.5087 9.80451 13.3768 11.2413 14.6094 12.474C15.842 13.7066 17.2788 14.5747 18.9198 15.0781C20.5601 15.5816 22.2396 15.6771 23.9584 15.3646C23.507 17.8646 22.309 19.9219 20.3646 21.5365C18.4202 23.151 16.1806 23.9583 13.6459 23.9583ZM6.25002 21.875H10.9375C11.3715 21.875 11.7403 21.7229 12.0438 21.4187C12.3479 21.1153 12.5 20.7465 12.5 20.3125C12.5 19.8785 12.3525 19.5097 12.0573 19.2062C11.7622 18.9021 11.4063 18.75 10.9896 18.75H9.63544L9.1146 17.5C8.87155 16.9271 8.4896 16.4715 7.96877 16.1333C7.44794 15.7944 6.87502 15.625 6.25002 15.625C5.38197 15.625 4.64412 15.9247 4.03648 16.524C3.42884 17.1226 3.12502 17.8646 3.12502 18.75C3.12502 19.6181 3.42884 20.3559 4.03648 20.9635C4.64412 21.5712 5.38197 21.875 6.25002 21.875ZM6.25002 23.9583C4.80905 23.9583 3.58092 23.4507 2.56565 22.4354C1.54967 21.4194 1.04169 20.191 1.04169 18.75C1.04169 17.309 1.54967 16.0806 2.56565 15.0646C3.58092 14.0493 4.80905 13.5417 6.25002 13.5417C7.29169 13.5417 8.24238 13.8236 9.1021 14.3875C9.96113 14.9521 10.599 15.7118 11.0156 16.6667C12.0052 16.7014 12.8472 17.0701 13.5417 17.7729C14.2361 18.4764 14.5834 19.3229 14.5834 20.3125C14.5834 21.3194 14.2275 22.1788 13.5156 22.8906C12.8038 23.6024 11.9445 23.9583 10.9375 23.9583H6.25002Z" fill="#F8B95B"/>
  </g>
</svg>