<svg xmlns="http://www.w3.org/2000/svg" width="25" height="25" viewBox="0 0 25 25" fill="none">
  <mask id="mask0_38_258" style="mask-type:alpha" maskUnits="userSpaceOnUse" x="0" y="0" width="25" height="25">
    <rect width="25" height="25" fill="#D9D9D9"/>
  </mask>
  <g mask="url(#mask0_38_258)">
    <mask id="mask1_38_258" style="mask-type:alpha" maskUnits="userSpaceOnUse" x="0" y="0" width="26" height="26">
      <rect x="0.00268555" y="0.205902" width="25" height="25" fill="#D9D9D9"/>
    </mask>
    <g mask="url(#mask1_38_258)">
      <path d="M17.9194 15.909C17.6589 15.8049 17.468 15.6181 17.3464 15.3486C17.2249 15.0799 17.2162 14.8153 17.3204 14.5549C17.4419 14.2597 17.5287 13.9514 17.5808 13.6299C17.6329 13.309 17.6589 12.9403 17.6589 12.5236C17.6589 11.2215 17.1641 10.0625 16.1746 9.04653C15.185 8.03125 14.0131 7.52361 12.6589 7.52361C12.3117 7.52361 11.969 7.54965 11.6308 7.60174C11.2919 7.65382 10.9575 7.7493 10.6277 7.88819C10.3499 8.00972 10.0808 8.00972 9.82039 7.88819C9.55998 7.76667 9.37768 7.56701 9.27352 7.28924C9.16935 7.01146 9.17387 6.74236 9.28706 6.48194C9.39956 6.22153 9.5947 6.03924 9.87248 5.93507C10.3239 5.76146 10.7753 5.63542 11.2266 5.55694C11.678 5.47917 12.1555 5.44028 12.6589 5.44028C14.6207 5.44028 16.2916 6.13472 17.6714 7.52361C19.052 8.9125 19.7423 10.5792 19.7423 12.5236C19.7423 13.0792 19.7121 13.574 19.6516 14.008C19.5905 14.442 19.4732 14.8847 19.2996 15.3361C19.1954 15.5965 19.0089 15.7788 18.7402 15.883C18.4707 15.9872 18.1971 15.9958 17.9194 15.909ZM12.5027 19.9976C10.4714 19.9976 8.74852 19.2899 7.33394 17.8747C5.91866 16.4601 5.21102 14.7372 5.21102 12.7059C5.21102 11.9941 5.31935 11.2781 5.53602 10.558C5.75338 9.83715 6.08775 9.15555 6.53914 8.51319C6.62595 8.3743 6.74331 8.26562 6.89123 8.18715C7.03845 8.10937 7.19019 8.07049 7.34644 8.07049C7.53741 8.05312 7.72421 8.09653 7.90685 8.20069C8.0888 8.30486 8.22317 8.44375 8.30998 8.61736C9.2822 10.3882 10.4714 11.9722 11.8777 13.3694C13.2839 14.7674 14.8725 15.9351 16.6433 16.8726C16.7996 16.9594 16.9253 17.0764 17.0204 17.2236C17.1162 17.3715 17.1728 17.541 17.1902 17.7319C17.2075 17.9056 17.1728 18.0705 17.086 18.2267C16.9992 18.383 16.8864 18.5132 16.7475 18.6174C16.1051 19.0687 15.4239 19.4118 14.7037 19.6465C13.9829 19.8806 13.2492 19.9976 12.5027 19.9976ZM12.5027 17.9142C12.7457 17.9142 12.9846 17.901 13.2194 17.8747C13.4534 17.849 13.7006 17.7927 13.961 17.7059C12.6589 16.8726 11.4697 15.9177 10.3933 14.8413C9.31692 13.7649 8.35338 12.5844 7.50269 11.2997C7.43324 11.5427 7.38116 11.7771 7.34644 12.0028C7.31171 12.2285 7.29435 12.4628 7.29435 12.7059C7.29435 14.1816 7.81102 15.4142 8.84435 16.4038C9.87699 17.3934 11.0964 17.8969 12.5027 17.9142ZM12.5027 3.3309C12.2075 3.3309 11.9603 3.2309 11.761 3.0309C11.561 2.8316 11.461 2.58437 11.461 2.28924V1.24757C11.461 0.95243 11.561 0.70486 11.761 0.50486C11.9603 0.305555 12.2075 0.205902 12.5027 0.205902C12.7978 0.205902 13.0454 0.305555 13.2454 0.50486C13.4447 0.70486 13.5444 0.95243 13.5444 1.24757V2.28924C13.5444 2.58437 13.4447 2.8316 13.2454 3.0309C13.0454 3.2309 12.7978 3.3309 12.5027 3.3309ZM12.5027 25.2059C12.2075 25.2059 11.9603 25.1059 11.761 24.9059C11.561 24.7066 11.461 24.4594 11.461 24.1642V23.1226C11.461 22.8274 11.561 22.5802 11.761 22.3809C11.9603 22.1809 12.2075 22.0809 12.5027 22.0809C12.7978 22.0809 13.0454 22.1809 13.2454 22.3809C13.4447 22.5802 13.5444 22.8274 13.5444 23.1226V24.1642C13.5444 24.4594 13.4447 24.7066 13.2454 24.9059C13.0454 25.1059 12.7978 25.2059 12.5027 25.2059ZM19.1173 6.06528C18.9089 5.85694 18.8048 5.60937 18.8048 5.32257C18.8048 5.03646 18.9089 4.78924 19.1173 4.5809L19.8464 3.85174C20.0548 3.6434 20.3065 3.53924 20.6016 3.53924C20.8968 3.53924 21.1485 3.6434 21.3569 3.85174C21.5652 4.06007 21.6652 4.30729 21.6569 4.5934C21.6478 4.88021 21.5391 5.12778 21.3308 5.33611L20.6016 6.06528C20.3933 6.27361 20.1457 6.37778 19.8589 6.37778C19.5728 6.37778 19.3256 6.27361 19.1173 6.06528ZM3.67456 21.534C3.46623 21.3257 3.36206 21.0785 3.36206 20.7924C3.36206 20.5056 3.46623 20.258 3.67456 20.0497L4.40373 19.3205C4.5947 19.1295 4.82907 19.034 5.10685 19.034C5.38463 19.034 5.62769 19.1295 5.83602 19.3205C6.04435 19.5115 6.1572 19.7545 6.17456 20.0497C6.19192 20.3448 6.09644 20.5965 5.8881 20.8049L5.15894 21.534C4.9506 21.7424 4.70338 21.8465 4.41727 21.8465C4.13046 21.8465 3.88289 21.7424 3.67456 21.534ZM22.9194 13.7476C22.6242 13.7476 22.377 13.6476 22.1777 13.4476C21.9777 13.2483 21.8777 13.001 21.8777 12.7059C21.8777 12.4108 21.9777 12.1632 22.1777 11.9632C22.377 11.7639 22.6242 11.6642 22.9194 11.6642H23.961C24.2562 11.6642 24.5034 11.7639 24.7027 11.9632C24.9027 12.1632 25.0027 12.4108 25.0027 12.7059C25.0027 13.001 24.9027 13.2483 24.7027 13.4476C24.5034 13.6476 24.2562 13.7476 23.961 13.7476H22.9194ZM1.04435 13.7476C0.749213 13.7476 0.501991 13.6476 0.302686 13.4476C0.102686 13.2483 0.00268555 13.001 0.00268555 12.7059C0.00268555 12.4108 0.102686 12.1632 0.302686 11.9632C0.501991 11.7639 0.749213 11.6642 1.04435 11.6642H2.08602C2.38116 11.6642 2.62873 11.7639 2.82873 11.9632C3.02803 12.1632 3.12769 12.4108 3.12769 12.7059C3.12769 13.001 3.02803 13.2483 2.82873 13.4476C2.62873 13.6476 2.38116 13.7476 2.08602 13.7476H1.04435ZM19.8464 21.534L19.1173 20.8049C18.9263 20.6139 18.8308 20.3795 18.8308 20.1017C18.8308 19.824 18.9263 19.5809 19.1173 19.3726C19.3082 19.1642 19.5513 19.0514 19.8464 19.034C20.1416 19.0167 20.3933 19.1122 20.6016 19.3205L21.3308 20.0497C21.5391 20.258 21.6391 20.501 21.6308 20.7788C21.6218 21.0566 21.5218 21.2997 21.3308 21.508C21.1398 21.7163 20.8968 21.8246 20.6016 21.833C20.3065 21.842 20.0548 21.7424 19.8464 21.534ZM4.40373 6.06528L3.67456 5.33611C3.46623 5.12778 3.36623 4.88889 3.37456 4.61944C3.38359 4.35069 3.48359 4.11215 3.67456 3.90382C3.86553 3.69549 4.10859 3.58264 4.40373 3.56528C4.69887 3.54792 4.9506 3.6434 5.15894 3.85174L5.8881 4.5809C6.09644 4.78924 6.2006 5.03646 6.2006 5.32257C6.2006 5.60937 6.09644 5.85694 5.8881 6.06528C5.67977 6.27361 5.43255 6.37778 5.14644 6.37778C4.85963 6.37778 4.61206 6.27361 4.40373 6.06528Z" fill="#E46B50"/>
    </g>
  </g>
</svg>