<svg xmlns="http://www.w3.org/2000/svg" width="25" height="25" viewBox="0 0 25 25" fill="none">
  <mask id="mask0_40_317" style="mask-type:alpha" maskUnits="userSpaceOnUse" x="0" y="0" width="25" height="25">
    <rect width="25" height="25" fill="#D9D9D9"/>
  </mask>
  <g mask="url(#mask0_40_317)">
    <path d="M15.9376 17.3958L11.4584 12.9166V7.29164H13.5417V12.0833L17.3959 15.9375L15.9376 17.3958ZM2.96883 16.7448C2.74314 16.2413 2.56085 15.7205 2.42196 15.1823C2.28307 14.6441 2.18758 14.0972 2.1355 13.5416H4.24487C4.29696 13.9062 4.37057 14.2708 4.46571 14.6354C4.56154 15 4.6789 15.3559 4.81779 15.7031L2.96883 16.7448ZM2.1355 11.4583C2.18758 10.9028 2.28307 10.3514 2.42196 9.80414C2.56085 9.25761 2.75182 8.73261 2.99487 8.22914L4.81779 9.27081C4.6789 9.61803 4.56154 9.97393 4.46571 10.3385C4.37057 10.7031 4.29696 11.0764 4.24487 11.4583H2.1355ZM6.43237 20.9896C5.96362 20.6423 5.5296 20.2646 5.13029 19.8562C4.73098 19.4486 4.35772 19.0104 4.0105 18.5416L5.83341 17.5C6.07647 17.8125 6.33272 18.1031 6.60216 18.3718C6.87091 18.6413 7.16154 18.8975 7.47404 19.1406L6.43237 20.9896ZM5.85946 7.47393L4.0105 6.43227C4.35772 5.96352 4.73098 5.52949 5.13029 5.13018C5.5296 4.73088 5.96362 4.35761 6.43237 4.01039L7.47404 5.85935C7.1789 6.10241 6.89696 6.35831 6.62821 6.62706C6.35876 6.8965 6.10251 7.17879 5.85946 7.47393ZM11.4584 22.8646C10.9029 22.8125 10.3518 22.717 9.80529 22.5781C9.25807 22.4392 8.73272 22.2482 8.22925 22.0052L9.27091 20.1823C9.61814 20.3212 9.97404 20.4382 10.3386 20.5333C10.7032 20.6291 11.0765 20.7031 11.4584 20.7552V22.8646ZM9.27091 4.81768L8.22925 2.99477C8.73272 2.75171 9.25807 2.56074 9.80529 2.42185C10.3518 2.28296 10.9029 2.18747 11.4584 2.13539V4.24477C11.0765 4.29685 10.7032 4.37046 10.3386 4.4656C9.97404 4.56143 9.61814 4.67879 9.27091 4.81768ZM13.5417 22.8646V20.7552C13.9237 20.7031 14.297 20.6291 14.6615 20.5333C15.0261 20.4382 15.382 20.3212 15.7292 20.1823L16.7709 22.0052C16.2674 22.2482 15.7424 22.4392 15.1959 22.5781C14.6487 22.717 14.0973 22.8125 13.5417 22.8646ZM15.7292 4.81768C15.382 4.67879 15.0261 4.56143 14.6615 4.4656C14.297 4.37046 13.9237 4.29685 13.5417 4.24477V2.13539C14.0973 2.18747 14.6487 2.28296 15.1959 2.42185C15.7424 2.56074 16.2674 2.75171 16.7709 2.99477L15.7292 4.81768ZM18.5678 20.9896L17.5261 19.1406C17.8213 18.8975 18.1036 18.6413 18.373 18.3718C18.6417 18.1031 18.8977 17.8212 19.1407 17.526L20.9897 18.5677C20.6424 19.0364 20.2692 19.4746 19.8699 19.8823C19.4706 20.2906 19.0365 20.6597 18.5678 20.9896ZM19.1407 7.47393C18.8977 7.17879 18.6417 6.8965 18.373 6.62706C18.1036 6.35831 17.8213 6.10241 17.5261 5.85935L18.5678 4.01039C19.0365 4.34025 19.4706 4.70484 19.8699 5.10414C20.2692 5.50345 20.6338 5.93747 20.9636 6.40622L19.1407 7.47393ZM20.7553 11.4583C20.7032 11.0764 20.6296 10.7031 20.5345 10.3385C20.4386 9.97393 20.3213 9.61803 20.1824 9.27081L22.0053 8.2031C22.231 8.72393 22.4178 9.25761 22.5657 9.80414C22.7129 10.3514 22.8126 10.9028 22.8647 11.4583H20.7553ZM22.0053 16.7708L20.1824 15.7291C20.3213 15.3819 20.4386 15.026 20.5345 14.6614C20.6296 14.2968 20.7032 13.9236 20.7553 13.5416H22.8647C22.8126 14.0972 22.7171 14.6482 22.5782 15.1948C22.4393 15.742 22.2483 16.2673 22.0053 16.7708Z" fill="#1C1B1F"/>
  </g>
</svg>